<svg xmlns="http://www.w3.org/2000/svg" width="120" height="120" viewBox="0 0 24 24" fill="none" stroke="#4f46e5" stroke-width="1" stroke-linecap="round" stroke-linejoin="round">
  <path d="M13 2H6a2 2 0 0 0-2 2v16a2 2 0 0 0 2 2h12a2 2 0 0 0 2-2V9z"></path>
  <polyline points="13 2 13 9 20 9"></polyline>
  <path d="M8 13h8" stroke-width="1.5"></path>
  <path d="M8 17h8" stroke-width="1.5"></path>
  <path d="M10 9h1" stroke-width="1.5"></path>
  <rect x="8" y="13" width="8" height="1" fill="#4f46e5" fill-opacity="0.2"></rect>
  <rect x="8" y="17" width="8" height="1" fill="#4f46e5" fill-opacity="0.2"></rect>
  <circle cx="17" cy="15" r="5" fill="#4f46e5" fill-opacity="0.1" stroke-width="0"></circle>
  <path d="M15 15l2 2 2-2m-2-6v6" stroke="#4f46e5" stroke-width="1.5"></path>
</svg>